<?xml version="1.0" standalone="no"?>
<!DOCTYPE svg PUBLIC "-//W3C//DTD SVG 20010904//EN"
 "http://www.w3.org/TR/2001/REC-SVG-20010904/DTD/svg10.dtd">
<svg version="1.0" xmlns="http://www.w3.org/2000/svg"
 width="980.000000pt" height="980.000000pt" viewBox="0 0 980.000000 980.000000"
 preserveAspectRatio="xMidYMid meet">

<g transform="translate(0.000000,980.000000) scale(0.100000,-0.100000)"
fill="white" stroke="none">
<path d="M1420 9785 c-363 -51 -667 -201 -929 -458 -277 -273 -437 -602 -481
-992 -8 -72 -10 -1037 -8 -3495 3 -3253 4 -3399 21 -3490 65 -332 214 -619
445 -854 272 -277 603 -440 992 -486 55 -7 1244 -10 3445 -10 3504 0 3438 0
3620 40 541 118 1015 548 1188 1075 38 115 64 235 77 350 8 71 10 1078 8 3495
-3 3253 -4 3399 -21 3490 -117 600 -540 1085 -1107 1269 -117 38 -166 49 -300
67 -151 20 -6804 19 -6950 -1z m1440 -4885 l0 -4080 -666 0 c-728 0 -729 0
-876 61 -190 78 -359 248 -438 440 -65 158 -61 -134 -58 3609 l3 3395 33 95
c99 283 337 493 623 549 24 5 344 9 712 10 l667 1 0 -4080z m5560 4042 c260
-91 448 -286 532 -552 l23 -75 0 -3415 0 -3415 -23 -75 c-93 -295 -317 -505
-613 -575 -56 -13 -353 -15 -2361 -15 l-2298 0 0 4080 0 4080 2323 -2 2322 -3
95 -33z"/>
<path d="M5603 6516 c-105 -34 -214 -132 -261 -233 -23 -50 -26 -71 -26 -158
-1 -172 -20 -147 558 -725 l496 -495 -494 -495 c-455 -457 -496 -500 -525
-563 -58 -121 -52 -259 15 -373 33 -57 119 -136 185 -170 50 -27 62 -29 164
-29 185 0 126 -48 893 718 622 621 665 666 699 734 62 125 56 269 -17 383 -16
25 -325 340 -687 701 -616 613 -662 658 -723 685 -52 23 -82 29 -150 31 -51 2
-102 -3 -127 -11z"/>
</g>
</svg>
